PathFileType	4	(X/Y/Z)	22_2_68_p1_0-173_filt_butterworth.trc
DataRate	CameraRate	NumFrames	NumMarkers	Units	OrigDataRate	OrigDataStartFrame	OrigNumFrames
60.0	60.0	7	27	m	60.0	86	173
Frame#	Time	RHip			RKnee			RAnkle			RBigToe			RSmallToe			RHeel			LHip			LKnee			LAnkle			LBigToe			LSmallToe			LHeel			Neck			Head			Nose			RShoulder			RElbow			RWrist			RThumb			RIndex			RPinky			LShoulder			LElbow			LWrist			LThumb			LIndex			LPinky			
		X1	Y1	Z1	X2	Y2	Z2	X3	Y3	Z3	X4	Y4	Z4	X5	Y5	Z5	X6	Y6	Z6	X7	Y7	Z7	X8	Y8	Z8	X9	Y9	Z9	X10	Y10	Z10	X11	Y11	Z11	X12	Y12	Z12	X13	Y13	Z13	X14	Y14	Z14	X15	Y15	Z15	X16	Y16	Z16	X17	Y17	Z17	X18	Y18	Z18	X19	Y19	Z19	X20	Y20	Z20	X21	Y21	Z21	X22	Y22	Z22	X23	Y23	Z23	X24	Y24	Z24	X25	Y25	Z25	X26	Y26	Z26	X27	Y27	Z27	
86	1.4333333333333331	0.262290979716893	0.5048382705076349	0.9207155165532868	0.27083679180760223	0.10460130071173712	0.8947345475311961	0.2938890766595632	-0.3408382487610653	0.9026085189826101	0.2610712896304412	-0.2979442233813788	0.6732218129705266	0.32755479962442263	-0.3162122758506718	0.7129450606918869	0.2889423440428896	-0.399818359047198	0.9288480975974249	0.033265237718762754	0.49295812901211616	0.9471746603882452	0.07742692517330192	0.1028617422111644	0.9084305921159214	0.0915139241212932	-0.31202550104117954	0.851360273559614	0.10464304997570975	-0.298851872521295	0.680541307084146	0.05200246130769985	-0.31295741060120585	0.7075627240801002	0.11506705948286533	-0.3843244846189727	0.8993368839371929	0.11827600827763188	1.0902191489604598	0.998740352696726	0.11268459949004624	1.3531732369134282	0.9895498738457454	0.08839520053140071	1.2267591902315091	0.8873063671979937	0.26350353514436514	1.018914561190062	0.9509244698351413	0.36343438084154384	0.7746692982908601	0.9138614074434004	0.35541238112653	0.5282277351469454	0.8064346454343695	0.2934087238770009	0.40677377615594523	0.7827550325996364	0.31634242979501775	0.36795589160801767	0.7989146125185931	0.35325002776783837	0.3764137982567294	0.7969036178959855	-0.04174559974044119	1.0122528155331274	0.9725929746199418	-0.07494243595037688	0.7341234025232841	0.9620928741830184	-0.03770111832204999	0.5187904022696028	0.8361928225523132	0.03103761318096173	0.46250129577511645	0.7468538526561911	0.01883775595375444	0.4426906464423114	0.7421190118435097	-0.053703386466148945	0.4243375537060998	0.7613218190789499	
87	1.45	0.26232631340980284	0.5044210261031377	0.9206336083150997	0.27082437841449675	0.10482784660627226	0.8946938374929101	0.293860247978215	-0.3405774450443013	0.9028651472116367	0.26107219013247335	-0.2979558985983512	0.6732287797179021	0.3277509206652056	-0.31657785008123485	0.7134101945268311	0.288969684193573	-0.3998172472565535	0.9288375638239746	0.03320498289170732	0.492418081104631	0.9475571888949541	0.07737897561007703	0.10342848077016986	0.9084760833926567	0.09145727181294067	-0.31225663502493284	0.851375514792414	0.1046332434258716	-0.2988253624946663	0.680531128649141	0.05199297353792606	-0.31302887306744714	0.70763225479367	0.1150088087473868	-0.383991198505984	0.8994280936925874	0.11872772731399325	1.090258469457999	0.9963907230648084	0.11361836853257137	1.3531960257583697	0.9897309892608681	0.08838946575051121	1.2266224222995141	0.8876686639404451	0.2635245988491213	1.0176758612486885	0.9506383711830368	0.36341716287586	0.7740298290297926	0.9136577163969765	0.3551166221136679	0.5257812543971678	0.8089620520004618	0.294045624924457	0.4068771339241522	0.7821555073650015	0.3163044696444107	0.36796015679013316	0.7986630688423502	0.3533936565928396	0.37625304121726855	0.7971233401838238	-0.0416902922033181	1.0122923117847802	0.9726369965720375	-0.0741665733975609	0.7330273727489681	0.9643321196239675	-0.03688806487728494	0.5177719338033703	0.8359072437783228	0.031023780709348955	0.46246475125447745	0.7468304720581868	0.018848353753432044	0.44292603343697096	0.7421237068568707	-0.05373453501267614	0.4238346526939185	0.7613836363536595	
88	1.4666666666666666	0.2623474815861918	0.5040512527439789	0.9205682580107875	0.2709173581893616	0.10509232597256091	0.8947068131133229	0.29383366318434545	-0.34036110876990605	0.9030947341309656	0.26107026733633515	-0.29798248710674513	0.6732725777757829	0.3277630925667695	-0.31661458910994716	0.7136044576306974	0.288995643202154	-0.39980472064184047	0.9288171043108457	0.03321371004956537	0.49159907777381384	0.9483433532892648	0.07737075015530187	0.10384200387983666	0.9085226610174352	0.09140499977839263	-0.3124175029484729	0.8514116743206256	0.10462818197349662	-0.2988154643494352	0.6805294751671925	0.05199501465274012	-0.3131314474935532	0.7077251478477549	0.11495651777448977	-0.38372188780495625	0.8994888177942039	0.11907828096331223	1.0906460492377525	0.9932575899599523	0.11466107879360553	1.3530607372040384	0.9899266123270877	0.08838698240248918	1.2263424339188418	0.8879699846128326	0.26345888246785004	1.0165520909902908	0.950426313379412	0.3634162014015368	0.7733366126965707	0.9133934950177129	0.35477119193246387	0.5232461156563537	0.8116474827914963	0.2949315219705904	0.40655228334664917	0.7817052274034928	0.3163521468734398	0.3676699257498366	0.7984159988718879	0.3534633355180837	0.3760793912474323	0.7972642567791649	-0.04165177147152088	1.0121969690431096	0.972631698995732	-0.07340115567209093	0.7317478135288403	0.9667905140728601	-0.03634237075446674	0.5171553623547379	0.8357007569325621	0.031033953842861093	0.4624540063060567	0.7468274721942727	0.01887918362393668	0.4433852791937667	0.7421464870355186	-0.053053707145852294	0.4222486283133458	0.7634116383375389	
89	1.4833333333333334	0.26235391985089473	0.503696358695253	0.9205145788992337	0.2711225134186211	0.10542729429869957	0.8947820508140022	0.2938093299777064	-0.34018784323642215	0.9032919863548972	0.26107092034597384	-0.2980057399675676	0.6733321211522842	0.3277148343382399	-0.31653521903953447	0.7136565583214612	0.2890186995736858	-0.3997820448819957	0.9287886109142667	0.033352410618711796	0.49047656402184653	0.949575497645059	0.07739341783291052	0.10408564221022615	0.9085675696398848	0.0913647544607839	-0.31250405492679945	0.8514533872022775	0.10462693004621636	-0.29882729836142985	0.6805392783300939	0.05200990918051772	-0.31326240316153664	0.7078144464130525	0.11491434159748493	-0.3834919924663019	0.8995304897554222	0.11945380042519158	1.09123075570192	0.9901003645911179	0.11568554464512854	1.3526713128186174	0.9900874612565707	0.08844224810890267	1.2260859911166024	0.8878197315819629	0.26340972071953034	1.0156936465344766	0.9503063311071684	0.3634424154819549	0.7726540583366396	0.9130494384717962	0.35443847626042707	0.5210331551365208	0.8141650200811805	0.2958524313608514	0.405405452059857	0.7821961503235371	0.3164361348120124	0.367116943363462	0.7980948149661418	0.3532985013660251	0.3759200348625561	0.7973348704006797	-0.04162584592642374	1.012081637110521	0.9726004963758857	-0.0727375562982781	0.7303282482603474	0.9691218099955404	-0.036188655874267145	0.517279316972542	0.8356813151306955	0.03107265243865246	0.46258575599268714	0.746861364328464	0.018931728510539782	0.44399333201385976	0.7421879640850428	-0.0517337145653714	0.41980505996422085	0.7671608559461545	
90	1.5	0.2623455890980194	0.5032771985106814	0.9204690582135129	0.2714433904192103	0.10586308157110641	0.8949322672929039	0.29378866669671033	-0.34006534310123054	0.9034529592063879	0.26107783951398883	-0.2980054653823161	0.6733766775136631	0.32754077584363794	-0.31633465582819664	0.7133348094939537	0.2890387588179127	-0.3997531530119785	0.9287553740666877	0.03368799077214051	0.4890753694040774	0.951231892717895	0.07743087364144313	0.10412469297567006	0.9086028559044973	0.09134339236950524	-0.3125151656309696	0.8514867649649113	0.10462768366494787	-0.29885391498104513	0.6805556025346315	0.05203390673068874	-0.3134134211922228	0.7078678497197401	0.11488561955324122	-0.3832940633337348	0.899568927393835	0.11988827706973015	1.091784744527506	0.9877264187279682	0.1165482235201171	1.352040223681069	0.9901796083373331	0.088603439904552	1.2260637731754445	0.886943484337438	0.2634917662090919	1.0151573017003896	0.9502645518577972	0.363511578639256	0.7719996003070713	0.9125505760891262	0.35417223502097817	0.5194163922932635	0.8161978551377022	0.29668446097266016	0.4033576316951192	0.7842046943854322	0.31652539086274756	0.3663902957241994	0.7976997143278803	0.3528481276545402	0.37578275924350074	0.7973579902138588	-0.04161127236680794	1.012011774912155	0.972560686766766	-0.0722606538044179	0.7288855068455466	0.9709734538828187	-0.03633412392300017	0.518153855437266	0.8358757394931601	0.03112809647866896	0.46294952218412755	0.7469308554975426	0.01901661394829757	0.4447027348120882	0.7422533022898778	-0.04989273309799233	0.41667577873642514	0.7722835401303667	
91	1.5166666666666666	0.2623233582680303	0.5027264928142788	0.9204224386495778	0.27185988571794784	0.1063571660512006	0.8951522148656108	0.29377367843645774	-0.34000524683755834	0.9035737700532828	0.26108743031765685	-0.29796918908308767	0.6733834011514479	0.3270833799372028	-0.3158757930138719	0.7122992011814021	0.289056494092276	-0.39972174756268	0.9287201597001182	0.034251850517409185	0.4875226285453206	0.9531290877515108	0.07746637017449777	0.10396253816797113	0.908618776868921	0.09134452055562005	-0.3124632479711146	0.8515013579984272	0.10462782573880276	-0.2988763479463663	0.6805659151343302	0.05205811174767807	-0.31356059928802066	0.7078772822287943	0.1148701017865157	-0.383123526580963	0.8996138131179245	0.12026806320139116	1.092019282755536	0.9868211639945289	0.11711195097773011	1.351279156555045	0.990172733960556	0.08893304857463	1.226360540409636	0.8853534735173925	0.26374130000404084	1.0149410750018801	0.9502779378396431	0.3636086587753161	0.771375631865988	0.9119031469492487	0.3540077288958752	0.5185409966148669	0.8174524579541587	0.29732801913906315	0.4006771458675237	0.7877470029838193	0.31662447270907723	0.3655655737190895	0.7973161153978305	0.35216087609009505	0.3756706493808254	0.7973509938423889	-0.04160664862721815	1.0119896891987312	0.9725141639807546	-0.07200500855771036	0.7275997165215008	0.9720774079110736	-0.0365962466467495	0.5195682143435045	0.8362497003230505	0.0311693270036247	0.4635387415149954	0.7470294853947963	0.01914644073821989	0.44551744105729496	0.742358014202618	-0.04766684908108168	0.41305684412989374	0.778394546001008	
92	1.5333333333333334	0.2622900530941359	0.5020600861778423	0.9203712040086696	0.2723195291291538	0.10678919709811568	0.895403319294056	0.2937661214228956	-0.3400220701985715	0.9036494334458011	0.2610913197279598	-0.29789773005971937	0.6733455934716368	0.32629006000135585	-0.3151047781077506	0.7104761873439114	0.2890688910077922	-0.39968443406650855	0.9286785074900167	0.035022323316173665	0.48604408141756017	0.9549292778902903	0.07748805144557747	0.10369365883444698	0.9086173427017743	0.09136379669216653	-0.3123741606436981	0.8514990994770447	0.10462465692868698	-0.29887328507393757	0.6805562014749237	0.05207376337695917	-0.3136256727439975	0.7078762296114378	0.11485949906542643	-0.38297724681587675	0.8996584537477639	0.1204132678011796	1.091713019444295	0.9876296384313843	0.11731449469323851	1.3506277586950155	0.990076879613595	0.08951072894479797	1.226934527343219	0.8832663118885338	0.2641502489677165	1.0149689392351775	0.9503227466498476	0.36370366221176686	0.7707195907136546	0.9113967031112404	0.3539436645508067	0.5183314535769429	0.8178658338962439	0.29762006148837183	0.3979595674035963	0.792064679663483	0.31676587405313267	0.36469054222728714	0.7970840083406379	0.35133321883200674	0.37558114470802484	0.7973366441848578	-0.041607703202886606	1.0119966548120845	0.97245655556223	-0.07191514013339859	0.7265789847512192	0.9724050195808048	-0.03685669647893597	0.5212131330859672	0.8367228808838161	0.03118028484909164	0.4642751206751962	0.7471512271482557	0.01931861363699319	0.4464035447875354	0.742505214760364	-0.04529565849481609	0.4094119643495712	0.7848343611716606	
